<svg width="48" height="48" viewBox="0 0 48 48" fill="none" xmlns="http://www.w3.org/2000/svg">
<path d="M36.3877 16.1623C37.0668 15.6907 37.2112 15.0101 36.9024 14.3049C36.4615 13.2971 35.1925 12.4476 33.7346 12.6304C31.8388 12.867 31.0292 14.1667 30.6866 15.1545C29.9722 17.2101 31.4317 19.9216 33.9804 18.8647C35.1418 18.3838 34.6825 17.3483 36.3877 16.1623Z" fill="#00A0AF"/>
<path d="M38.6907 17.7228C38.1668 18.4464 39.7599 19.826 40.2977 19.1485C40.9567 18.3189 41.2041 17.0852 40.1532 17.0899C40.1532 17.0899 39.1193 17.1298 38.6907 17.7228Z" fill="#00A0AF"/>
<path d="M41.6265 16.5656C40.9721 15.5409 40.1548 15.3795 39.8997 15.2566C39.8122 12.0043 38.0301 9.20827 35.4399 7.64279C35.7072 6.3646 34.9037 4.58865 32.8082 4.74842C31.5254 4.84521 30.7957 5.55036 30.3348 6.31083C30.1305 6.31697 29.9261 6.33233 29.7218 6.35231C29.2471 5.14478 27.9889 4.69772 26.6923 5.6026C24.4001 3.32274 21.2584 2 17.983 2C14.299 2 10.8147 3.58852 8.41195 6.51362C7.84967 5.99896 6.98628 5.59645 5.90473 6.30622C4.06886 7.50913 4.6972 10.15 6.1828 10.6416C5.84174 11.7478 5.65892 12.903 5.64817 14.0829C5.26409 14.7973 4.98295 15.7698 4.92457 17.1079C4.78938 20.1682 5.78643 25.92 11.5168 26.1305C12.7673 26.1766 13.8673 26.0061 14.7768 25.6251C16.3561 25.6266 22.3784 25.6297 24.5276 25.6281C25.4156 25.9446 26.4126 26.1182 27.5295 26.1182C31.0906 26.1182 33.5656 26.3855 34.2984 24.4621C35.5275 24.2531 37.2619 23.78 38.855 22.7122C41.1257 22.6277 42.7373 22.4803 43.4977 21.388C44.4348 20.0468 43.8864 17.4228 41.6265 16.5656ZM14.6078 24.84C13.0008 25.6542 11.6781 25.6466 11.1235 24.8846C10.3707 23.8506 11.2495 21.9026 13.1775 20.8272C14.7568 19.9469 15.8399 20.1451 16.353 20.692C17.3962 21.8074 16.5666 23.8476 14.6078 24.84ZM41.31 18.7794C40.9659 20.1666 39.7953 21.1222 39.1408 21.5861C37.5308 22.7276 35.7948 23.4174 34.4705 23.6786C34.5857 22.1638 33.6194 20.3126 31.4317 19.9223C29.5113 19.5798 28.691 19.8409 26.6462 19.5229C25.1053 19.2833 22.933 17.5764 22.4813 14.7881C22.1725 12.8831 22.2739 11.6863 21.243 11.485C19.6745 11.1763 18.7297 14.2196 18.8864 16.4657C19.1383 20.0683 20.4457 23.233 23.0236 24.8922C20.8759 24.8922 17.705 24.8907 16.0074 24.8907C18.1382 23.1578 18.132 20.2219 16.9537 18.6933C15.9167 17.3506 14.3359 17.4919 13.199 17.8407C12.8334 16.6516 12.5185 15.5071 12.3894 14.9693C11.7242 12.1917 8.5794 11.0349 6.44396 13.0367C7.02314 7.40313 11.821 2.73435 17.9846 2.73435C21.0556 2.73435 24.0007 3.96952 26.1546 6.10036C25.4709 6.94839 25.4801 8.05759 25.4832 8.77503C25.4924 10.9258 27.3774 11.0764 27.9597 10.1085C28.6479 8.96246 28.2854 9.31734 29.4729 8.19124C29.7664 7.91318 29.8908 7.50452 29.877 7.07436C33.6701 6.73484 37.0499 8.90869 38.4664 12.1272C38.7306 13.0213 38.0685 13.5329 38.1391 14.5484C38.1898 15.2781 38.7168 15.5531 39.4865 15.865C39.6078 15.9326 39.7522 15.9956 39.9258 16.0555C40.9659 16.4181 41.5681 17.7424 41.31 18.7794Z" fill="#00A0AF"/>
<path d="M10.6 37.2V40.725C10.47 40.855 10.25 41.01 9.94 41.19C9.63 41.37 9.32 41.52 9.01 41.64C8.2 41.98 7.3 42.15 6.31 42.15C4.66 42.15 3.41 41.75 2.56 40.95C1.72 40.14 1.3 38.97 1.3 37.44C1.3 35.91 1.73 34.74 2.59 33.93C3.46 33.11 4.665 32.7 6.205 32.7C7.405 32.7 8.5 32.95 9.49 33.45C9.72 33.56 9.89 33.655 10 33.735L10.15 33.855L9.49 35.19C9.02 34.99 8.46 34.89 7.81 34.89C6.15 34.89 5.32 35.75 5.32 37.47C5.32 38.36 5.51 39.055 5.89 39.555C6.27 40.055 6.77 40.305 7.39 40.305C7.64 40.305 7.885 40.255 8.125 40.155L7.78 38.715H6.67L6.97 37.2H10.6ZM12.3573 41.265C11.6373 40.665 11.2773 39.715 11.2773 38.415C11.2773 37.115 11.6373 36.17 12.3573 35.58C13.0873 34.98 14.0573 34.68 15.2673 34.68C16.4773 34.68 17.4423 34.98 18.1623 35.58C18.8923 36.17 19.2573 37.115 19.2573 38.415C19.2573 39.715 18.8923 40.665 18.1623 41.265C17.4423 41.855 16.4773 42.15 15.2673 42.15C14.0573 42.15 13.0873 41.855 12.3573 41.265ZM14.6373 36.72C14.5173 37.06 14.4573 37.625 14.4573 38.415C14.4573 39.205 14.5173 39.775 14.6373 40.125C14.7573 40.465 14.9673 40.635 15.2673 40.635C15.5673 40.635 15.7773 40.465 15.8973 40.125C16.0173 39.775 16.0773 39.205 16.0773 38.415C16.0773 37.625 16.0173 37.06 15.8973 36.72C15.7773 36.37 15.5673 36.195 15.2673 36.195C14.9673 36.195 14.7573 36.37 14.6373 36.72Z" fill="#FFC727"/>
<path d="M24.4928 38.505C24.4928 39.115 24.5928 39.53 24.7928 39.75C24.9928 39.96 25.2428 40.065 25.5428 40.065C26.0128 40.065 26.4878 39.985 26.9678 39.825L27.1928 39.75L27.8378 41.04C27.7478 41.12 27.6128 41.225 27.4328 41.355C27.2528 41.475 26.8478 41.64 26.2178 41.85C25.5978 42.05 24.9528 42.15 24.2828 42.15C23.6228 42.15 23.0678 42.055 22.6178 41.865C22.1678 41.675 21.8228 41.455 21.5828 41.205C21.3428 40.945 21.1478 40.605 20.9978 40.185C20.8478 39.755 20.7478 39.39 20.6978 39.09C20.6578 38.79 20.6228 38.415 20.5928 37.965L20.2328 32.91H26.9828L27.4028 34.71L24.8528 34.935L24.7028 36.39H26.7128L27.0128 37.8L24.4928 38.43V38.505ZM34.1757 34.68C34.8757 34.68 35.4757 34.975 35.9757 35.565C36.4857 36.155 36.7407 36.925 36.7407 37.875C36.7407 38.815 36.6257 40.19 36.3957 42H33.7707L33.4707 38.64C33.3707 37.57 33.0807 37.035 32.6007 37.035C32.0307 37.035 31.7257 37.575 31.6857 38.655L31.5807 42H28.8207L28.5057 34.89H31.8957L31.8357 36.165C31.8857 36.065 32.0007 35.91 32.1807 35.7C32.3607 35.49 32.5357 35.32 32.7057 35.19C33.1457 34.85 33.6357 34.68 34.1757 34.68ZM41.9363 44.775C41.4463 44.775 40.9663 44.7 40.4963 44.55C40.0263 44.41 39.6813 44.27 39.4613 44.13L39.1313 43.905L39.7913 42.555C40.2213 42.765 40.6213 42.87 40.9913 42.87C41.6713 42.87 42.1713 42.655 42.4913 42.225C42.8113 41.795 42.9713 41.3 42.9713 40.74C42.9713 40.64 42.9663 40.54 42.9563 40.44C42.4863 41.38 41.7163 41.85 40.6463 41.85C39.7063 41.85 38.9563 41.565 38.3963 40.995C37.8463 40.425 37.5713 39.52 37.5713 38.28C37.5713 37.59 37.6663 36.995 37.8563 36.495C38.0563 35.995 38.3163 35.62 38.6363 35.37C39.2263 34.91 39.8813 34.68 40.6013 34.68C41.1013 34.68 41.5263 34.8 41.8763 35.04C42.1663 35.25 42.4113 35.48 42.6113 35.73L42.5213 34.89H46.0013L45.7463 40.725C45.6163 43.425 44.3463 44.775 41.9363 44.775ZM41.5613 36.705C40.9713 36.705 40.6763 37.255 40.6763 38.355C40.6763 38.555 40.6913 38.75 40.7213 38.94C40.7613 39.13 40.8563 39.32 41.0063 39.51C41.1663 39.7 41.3913 39.795 41.6813 39.795C41.9713 39.795 42.1863 39.655 42.3263 39.375C42.4763 39.095 42.5513 38.755 42.5513 38.355C42.5513 37.255 42.2213 36.705 41.5613 36.705Z" fill="#00A0AF"/>
</svg>
